Coordinates
version=1
nRows=38
nColumns=12
inDegrees=yes

Units are S.I. units (second, meters, Newtons, ...)
Angles are in degrees

endheader
time	SC_y	SC_z	SC_x	AC_y	AC_z	AC_x	GH_y	GH_z	GH_yy	EL_x	PS_y
       0.0              -56.92          38.38          65.39          54.01         -5.784         -6.763         -143.6          72.02         -25.85           42.7          154.3
  0.008525              -56.92          38.38          65.39          54.01         -5.786          -6.76         -143.6           72.0         -25.83          42.71          154.3
   0.01705              -56.92          38.37          65.38          54.01         -5.787         -6.757         -143.6          71.99         -25.81          42.72          154.3
   0.02558              -56.92          38.37          65.38          54.01         -5.789         -6.754         -143.6          71.98         -25.79          42.73          154.3
    0.0341              -56.92          38.36          65.38          54.01          -5.79          -6.75         -143.6          71.97         -25.77          42.74          154.3
   0.04263              -56.92          38.35          65.37          54.01         -5.792         -6.747         -143.6          71.95         -25.75          42.75          154.3
   0.05115              -56.92          38.35          65.37          54.01         -5.794         -6.743         -143.6          71.94         -25.73          42.77          154.3
   0.05968              -56.92          38.34          65.37          54.01         -5.796         -6.738         -143.6          71.92          -25.7          42.78          154.3
    0.0682              -56.92          38.33          65.36          54.01         -5.798         -6.734         -143.6          71.91         -25.68           42.8          154.3
   0.07673              -56.92          38.33          65.36          54.01           -5.8         -6.729         -143.6          71.89         -25.65          42.81          154.3
   0.08525              -56.92          38.32          65.35          54.01         -5.803         -6.724         -143.6          71.87         -25.62          42.83          154.3
   0.09378              -56.92          38.31          65.34          54.02         -5.806         -6.718         -143.6          71.85         -25.58          42.85          154.3
    0.1023              -56.92           38.3          65.34          54.02         -5.808         -6.712         -143.7          71.83         -25.55          42.87          154.2
    0.1108              -56.92          38.29          65.33          54.02         -5.811         -6.705         -143.7           71.8         -25.51          42.89          154.2
    0.1194              -56.91          38.28          65.32          54.02         -5.815         -6.698         -143.7          71.78         -25.47          42.92          154.2
    0.1279              -56.91          38.26          65.32          54.02         -5.819          -6.69         -143.7          71.75         -25.42          42.94          154.2
    0.1364              -56.91          38.25          65.31          54.02         -5.822         -6.682         -143.7          71.72         -25.37          42.97          154.2
    0.1449              -56.91          38.23           65.3          54.02         -5.827         -6.673         -143.7          71.68         -25.32           43.0          154.2
    0.1535              -56.91          38.22          65.29          54.03         -5.831         -6.662         -143.7          71.65         -25.26          43.03          154.2
     0.162              -56.91           38.2          65.28          54.03         -5.837         -6.651         -143.7          71.61          -25.2          43.07          154.2
    0.1705              -56.91          38.18          65.26          54.03         -5.842         -6.639         -143.7          71.56         -25.13          43.11          154.1
     0.179              -56.91          38.16          65.25          54.03         -5.849         -6.626         -143.7          71.51         -25.05          43.15          154.1
    0.1876              -56.91          38.13          65.23          54.03         -5.855         -6.611         -143.7          71.46         -24.96           43.2          154.1
    0.1961              -56.91          38.11          65.22          54.04         -5.863         -6.595         -143.7           71.4         -24.87          43.26          154.1
    0.2046              -56.91          38.08           65.2          54.04         -5.872         -6.577         -143.7          71.33         -24.76          43.32          154.1
    0.2131              -56.91          38.05          65.18          54.04         -5.881         -6.557         -143.7          71.26         -24.64          43.38          154.0
    0.2217               -56.9          38.01          65.16          54.05         -5.892         -6.534         -143.7          71.18         -24.51          43.46          154.0
    0.2302               -56.9          37.97          65.13          54.05         -5.904         -6.509         -143.8          71.08         -24.36          43.54          154.0
    0.2387               -56.9          37.92           65.1          54.06         -5.917          -6.48         -143.8          70.98          -24.2          43.64          153.9
    0.2472               -56.9          37.87          65.07          54.06         -5.932         -6.447         -143.8          70.86          -24.0          43.75          153.9
    0.2558               -56.9          37.81          65.03          54.07          -5.95          -6.41         -143.8          70.72         -23.79          43.87          153.8
    0.2643              -56.89          37.74          64.98          54.08          -5.97         -6.368         -143.8          70.56         -23.54          44.01          153.8
    0.2728              -56.89          37.66          64.93          54.08         -5.993         -6.318         -143.9          70.38         -23.25          44.17          153.7
    0.2813              -56.89          37.57          64.87          54.09          -6.02         -6.261         -143.9          70.17         -22.92          44.36          153.6
    0.2899              -56.88          37.46           64.8           54.1         -6.051         -6.194         -143.9          69.93         -22.52          44.59          153.5
    0.2984              -56.88          37.33          64.72          54.12         -6.088         -6.115         -144.0          69.64         -22.06          44.85          153.4
    0.3069              -56.87          37.18          64.63          54.13         -6.132         -6.021         -144.0          69.29         -21.51          45.16          153.3
    0.3154              -56.87          36.99          64.51          54.15         -6.185         -5.908         -144.1          68.88         -20.86          45.53          153.1
